<svg width="16" height="16" viewBox="0 0 16 16" fill="none" xmlns="http://www.w3.org/2000/svg">
<g clip-path="url(#clip0_80_3506)">
<path d="M11.8159 4.74479C11.9565 4.60414 12.0355 4.41338 12.0355 4.21446C12.0355 4.01555 11.9565 3.82479 11.8159 3.68413C11.6752 3.54348 11.4844 3.46446 11.2855 3.46446C11.0866 3.46446 10.8959 3.54348 10.7552 3.68413L7.75 6.68934L4.7448 3.68413C4.60414 3.54348 4.41338 3.46446 4.21447 3.46446C4.01555 3.46446 3.82479 3.54348 3.68414 3.68413C3.54348 3.82479 3.46447 4.01555 3.46447 4.21446C3.46447 4.41338 3.54348 4.60414 3.68414 4.74479L6.68934 7.75L3.68414 10.7552C3.54348 10.8959 3.46447 11.0866 3.46447 11.2855C3.46447 11.4844 3.54348 11.6752 3.68414 11.8159C3.82479 11.9565 4.01555 12.0355 4.21447 12.0355C4.41338 12.0355 4.60414 11.9565 4.7448 11.8159L7.75 8.81066L10.7552 11.8159C10.8959 11.9565 11.0866 12.0355 11.2855 12.0355C11.4844 12.0355 11.6752 11.9565 11.8159 11.8159C11.9565 11.6752 12.0355 11.4844 12.0355 11.2855C12.0355 11.0866 11.9565 10.8959 11.8159 10.7552L8.81066 7.75L11.8159 4.74479Z" fill="white"/>
</g>
<defs>
<clipPath id="clip0_80_3506">
<rect width="16" height="16" fill="white"/>
</clipPath>
</defs>
</svg>
